#!OML:ASF E:\VariousWalksJay\Project 1\Capture day 1\Session 1\Actor2.ASF
:FULLY-SPECIFIED
:DEGREES
556
root 4.59756 13.9405 13.925 15.3718 -45.1514 -2.16535
lowerback 43.2218 -3.07692 -0.93578
upperback 17.311 -5.44395 -3.09598
thorax -1.17464 -2.98223 -0.833258
lowerneck 4.67096 3.55077 -2.56639
upperneck -26.2087 5.17744 2.7862
head -9.10072 2.2785 0.938458
rclavicle 3.18055e-015 4.21423e-014
rhumerus -13.7194 34.3157 -72.5964
rradius 114.834
rwrist -1.1863
rhand -33.6524 -9.7735
rfingers 7.12502
rthumb -6.84403 -39.6429
lclavicle 3.18055e-015 4.21423e-014
lhumerus 58.4169 -4.78577 41.1567
lradius 80.1101
lwrist 53.8613
lhand -28.8417 13.6589
lfingers 7.12502
lthumb -2.19887 43.6273
rfemur -77.9245 5.72157 27.1745
rtibia 42.703
rfoot -15.4465 -3.12043
rtoes -25.734
lfemur -61.5589 7.95035 -33.859
ltibia 84.396
lfoot -33.7411 8.13064
ltoes -9.17039
557
root 4.54591 13.9204 13.9887 15.1355 -45.0118 -2.02284
lowerback 43.0236 -3.11978 -0.829016
upperback 17.3765 -5.45526 -3.19405
thorax -1.06799 -2.97611 -0.996301
lowerneck 4.68277 3.49946 -2.2435
upperneck -26.1071 5.15042 2.804
head -9.05739 2.23324 0.892353
rclavicle -6.36111e-015 -1.70955e-014
rhumerus -13.8412 34.3208 -72.8081
rradius 114.998
rwrist -1.28765
rhand -33.538 -9.8124
rfingers 7.12502
rthumb -6.73359 -39.6853
lclavicle -6.36111e-015 -1.70955e-014
lhumerus 58.5643 -4.84307 40.72
lradius 79.9118
lwrist 54.0192
lhand -28.7333 13.6471
lfingers 7.12502
lthumb -2.09416 43.6166
rfemur -77.2046 5.72982 27.1747
rtibia 40.9621
rfoot -15.4561 -3.25906
rtoes -26.0288
lfemur -61.2365 7.89628 -33.8785
ltibia 84.8309
lfoot -33.8467 7.96067
ltoes -9.71066
558
root 4.49469 13.9083 14.0525 14.9266 -44.935 -1.97554
lowerback 42.8139 -3.11956 -0.61839
upperback 17.4834 -5.38284 -3.28635
thorax -0.917111 -2.92618 -1.23825
lowerneck 4.68136 3.3835 -1.90012
upperneck -26.0472 5.0213 2.77733
head -9.02186 2.14107 0.837502
rclavicle 1.43125e-014 6.40087e-014
rhumerus -14.0472 34.1533 -73.0274
rradius 115.165
rwrist -1.28941
rhand -33.3748 -9.92858
rfingers 7.12502
rthumb -6.57608 -39.8065
lclavicle 1.43125e-014 6.40087e-014
lhumerus 58.8395 -5.0146 40.301
lradius 79.7488
lwrist 54.0817
lhand -28.6538 13.7523
lfingers 7.12502
lthumb -2.01731 43.7225
rfemur -76.4741 5.88631 27.0372
rtibia 39.4478
rfoot -15.4292 -3.33304
rtoes -25.3905
lfemur -60.8912 7.94604 -33.834
ltibia 85.2373
lfoot -33.929 7.73553
ltoes -10.3509
559
root 4.44137 13.8966 14.1161 14.7329 -44.8031 -1.90164
lowerback 42.5818 -3.12734 -0.440956
upperback 17.5781 -5.32713 -3.34389
thorax -0.76699 -2.88684 -1.42139
lowerneck 4.67049 3.28094 -1.60867
upperneck -26.003 4.91485 2.79217
head -8.99389 2.06018 0.803576
rclavicle -4.6118e-014 9.26337e-014
rhumerus -14.2779 34.0048 -73.2222
rradius 115.295
rwrist -1.26205
rhand -33.2438 -9.89782
rfingers 7.12502
rthumb -6.44956 -39.7796
lclavicle -4.6118e-014 9.26337e-014
lhumerus 59.0659 -5.19225 39.8607
lradius 79.6186
lwrist 54.2335
lhand -28.5445 13.8523
lfingers 7.12502
lthumb -1.91182 43.8235
rfemur -75.825 6.0566 26.7863
rtibia 38.1278
rfoot -15.2945 -3.53309
rtoes -24.7197
lfemur -60.5549 7.92608 -33.8093
ltibia 85.6351
lfoot -34.0346 7.51391
ltoes -10.869
560
root 4.3892 13.8871 14.1843 14.6158 -44.6505 -1.87229
lowerback 42.3058 -3.19014 -0.160851
upperback 17.665 -5.29925 -3.41988
thorax -0.622874 -2.8525 -1.66675
lowerneck 4.61011 3.16123 -1.25471
upperneck -25.9203 4.77041 2.7268
head -8.93908 1.96474 0.736009
rclavicle -2.06736e-014 -2.3059e-014
rhumerus -14.5803 33.8481 -73.458
rradius 115.391
rwrist -1.17535
rhand -33.1504 -9.83272
rfingers 7.12502
rthumb -6.35939 -39.7173
lclavicle -2.06736e-014 -2.3059e-014
lhumerus 59.2671 -5.44342 39.4041
lradius 79.535
lwrist 54.3792
lhand -28.6448 13.8488
lfingers 7.12502
lthumb -2.00868 43.8191
rfemur -75.2782 6.16835 26.5822
rtibia 37.0295
rfoot -15.0715 -3.57934
rtoes -24.0672
lfemur -60.2386 7.89236 -33.7961
ltibia 85.9769
lfoot -34.1114 7.40647
ltoes -12.1413
561
root 4.33449 13.8834 14.2516 14.4753 -44.5459 -1.90375
lowerback 42.0755 -3.18628 0.103492
upperback 17.7674 -5.2029 -3.47372
thorax -0.466912 -2.78818 -1.90466
lowerneck 4.61371 3.0346 -0.887806
upperneck -25.906 4.617 2.6491
head -8.92017 1.8631 0.661565
rclavicle 3.97569e-014 -8.62725e-014
rhumerus -14.9616 33.6189 -73.7495
rradius 115.431
rwrist -1.06669
rhand -33.0944 -9.75174
rfingers 7.12502
rthumb -6.30539 -39.6379
lclavicle 3.97569e-014 -8.62725e-014
lhumerus 59.5196 -5.71943 38.9276
lradius 79.4661
lwrist 54.5842
lhand -28.6269 13.9067
lfingers 7.12502
lthumb -1.99139 43.8772
rfemur -74.6551 6.34829 26.413
rtibia 36.0856
rfoot -14.7292 -3.71538
rtoes -23.3901
lfemur -59.8841 7.95372 -33.697
ltibia 86.3036
lfoot -34.239 7.032
ltoes -12.0651
